<?xml version="1.0" encoding="utf-8"?>
<!-- Generator: Adobe Illustrator 23.0.0, SVG Export Plug-In . SVG Version: 6.00 Build 0)  -->
<svg version="1.1" id="Capa_1" xmlns="http://www.w3.org/2000/svg" xmlns:xlink="http://www.w3.org/1999/xlink" x="0px" y="0px"
	 viewBox="0 0 760 590.69" style="enable-background:new 0 0 760 590.69;" xml:space="preserve">
<style type="text/css">
	.st0{fill:#473528;}
	.st1{fill:#FECE43;}
	.st2{fill:#FE9D00;}
	.st3{fill:#8B8078;}
	.st4{fill:#524135;}
	.st5{fill:#C29F82;}
	.st6{fill:#C3A17E;}
	.st7{fill:#BF9B7E;}
	.st8{fill:#C3A184;}
	.st9{fill:#C19E81;}
	.st10{fill:#BE9B7C;}
	.st11{fill:#C4A380;}
	.st12{fill:#C4A385;}
	.st13{fill:#F2E8C5;}
	.st14{fill:#C09C7D;}
	.st15{fill:#D1B693;}
	.st16{fill:#BF9E7B;}
	.st17{fill:#C19E7F;}
	.st18{fill:#AB8675;}
	.st19{fill:#6C5E54;}
	.st20{fill:#EBD6B0;}
	.st21{fill:#E3DCB8;}
	.st22{fill:#BC9676;}
	.st23{fill:#9B928B;}
	.st24{fill:#F7F6EE;}
	.st25{fill:#ECEAE9;}
	.st26{fill:#908988;}
	.st27{fill:#ECE5CB;}
	.st28{fill:#F9F7F2;}
	.st29{fill:#F0EFEE;}
	.st30{fill:#F2F1F0;}
	.st31{fill:#D5D1CF;}
	.st32{fill:#F4E4B6;}
	.st33{fill:#999493;}
	.st34{fill:#D1CDCA;}
	.st35{fill:#ABA39E;}
	.st36{fill:#F0E6C2;}
	.st37{fill:#BAB4AF;}
	.st38{fill:#F2F1EF;}
	.st39{fill:#A29A93;}
	.st40{fill:#A19A94;}
	.st41{fill:#FBFAFA;}
	.st42{fill:#FEFEFE;}
	.st43{fill:#FDB511;}
	.st44{fill:#FEBF23;}
	.st45{fill:#594D4C;}
</style>
<path class="st0" d="M61.99,389.71c13.22,1.97,26.32-1.41,39.08-3.54c11.12-1.86,22.28,0.2,32.92-2.44
	c14.37-3.56,28.98-0.03,42.93-2.98c16.03-3.39,31.98-0.96,47.77-2.72c10.58-15.55,20.21-31.77,32.85-45.35
	c2.16,1.33,3.86,2.38,5.69,3.51c1.71-1,3.43-2,5.14-3c5.57-3.77,10.77-9.17,16.81-10.92c9.18-2.66,16.54-7.85,23.46-14.51
	c2.52-0.94,5.03-1.88,7.55-2.83c0.84-0.94,1.68-1.88,2.52-2.83c3.36,0,6.71,0,10.07,0c1.75,0.55,3.66,0.77,5.21,1.73
	c2.39,1.48,4.19,2.26,4.86-1.73c1.68-2.83,3.36-5.65,5.03-8.48c5.14-0.22,10.55,1.34,15.1-2.83c0.84,0,1.68,0,2.52,0
	c1.1,5.12,4.4,2.96,6.75,2.18c5.94-1.95,11.75-4.39,18.14-6.84c0-3.98,0-9.01,0-13.99c-9.04-17.75-9.8-20.76-9.8-39.06
	c0-10.68,0-21.36,0-32.63c-3.62-1.56-6.85-2.95-10.07-4.35c0-1.41,0-2.81,0-4.22c-0.12-7.56,0.26-15.16-0.34-24.03
	c-6.64,2.72-11.96,4.9-17.28,7.08c-0.84,0-1.68,0-2.52,0c-1.82,0.63-3.63,1.35-5.48,1.88c-1.5,0.43-3.06,0.64-4.59,0.95
	c0-4.71,0-9.42,0-14.13c5.35-2.05,3.02-8.37,1.99-9.82c-3.03-4.25-1.41-8.58-1.99-12.78c2.18-1.79,4.35-3.57,6.18-5.07
	c6.96,4.63,14.46,1.18,21.51,2.24c3.87,0.66,6.24-1.51,7.52-5.31c1.78-5.29,3.25-10.72,5.11-15.98c1.01-2.85,2.54-5.47,3.58-7.66
	c-2.09-2.35-4.6-5.16-5.3-5.95c-1.95-9.78,1.4-17.09-3.09-22.98c4.77-3.67,9.58-7.36,13.89-10.68c3.67,4.38,6.49,7.73,10.68,12.73
	c0,1.25,0,5.35,0,11.05c-1.19,0.87-3.28,2.39-5,3.66c1.76,7.52,7.26,9.19,12.15,12.77c7.12,0.88,15.59-2.09,23.32,4.12
	c0,3.75,0,7.85,0,12.44c3.25,0,6.06,0,8.44,0c1.63,1.83,2.81,3.16,4.1,4.61c0,3.62,0,7.35,0,10.98c1.96,2.45,3.82,4.78,5.12,6.4
	c-3.34,7.1-6.24,13.27-9.14,19.44c0.36,0.21,0.71,0.42,1.07,0.63c-1.78,2-3.56,3.99-5.78,6.49c-3.21,0-6.87,0-10.14,0
	c-1.53,1.81-2.66,3.15-3.33,3.95c0.94,5.23,1.79,9.93,2.5,13.88c-3.24,2.26-5.58,3.89-7.89,5.49c0,8.42-0.21,16.4,0.08,24.36
	c0.16,4.39-1.82,9.42,2.32,13.06c0.42,0.37,0.41,1.97,0.07,2.69c-5.19,11.03-1.39,22.02,0.09,32.98c1.01,7.46,2.47,14.84,3.78,22.24
	c0.02,0.09,0.79,0.01,1.21,0.01c1.05,0.94,2.06,2.63,3.15,2.7c4.91,0.29,10.5-1.52,14.6,0.54c5.17,2.6,10.07,1.81,15.11,2.47
	c5.01,0.66,9.98,1.82,14.96,2.76c1.18,1.8,2.04,4.56,3.61,5.23c6.49,2.79,9.99,8.84,14.08,14.46c3,4.12,6.64,7.67,10.1,11.36
	c1.13,1.21,2.69,1.92,3.85,3.1c13.45,13.73,26.86,27.51,40.97,41.99c-0.34-0.04,0.47,0.2,1.26,0.13
	c24.86-2.05,49.46,4.45,74.31,2.85c12.4,4.8,25.25,2,37.88,2.93c4.29,0.32,8.52,1.78,12.78,2.73c0.02,3.79,2.59,2.78,4.4,2.79
	c11.95,0.07,23.91,0.04,35.87,0.04c0.84,0,1.68,0,2.52,0c-0.66,0.94-1.28,2.65-2,2.7c-3.76,0.27-7.53,0.13-11.31,0.13
	c-211.18,0-422.35,0-633.53,0C61.99,391.6,61.99,390.66,61.99,389.71z M474.75,358.63c-4.84,4.49-3.29,12.05-6.5,17.22
	c-3.56,2.67-6.98,5.23-9.86,7.39c-1.67-0.88-2.72-1.44-5.18-1.87c0.85-0.17,1.7-0.34,2.54-0.52c-2.06-7.98-4.17-15.94-6.16-23.94
	c-1.88-7.58-4.49-14.77-5.5-22.84c-1.06-8.44-2.13-16.84-2.06-24.95c-1.56-1.66-2.71-2.88-5.04-5.36c0,9.62,0.14,17.89-0.04,26.16
	c-0.17,7.77,1.5,14.65,4.75,21.7c3.5,7.6,6.96,15.52,8.02,24.36c0.23,1.94,2.28,3.61,4.89,5.27c0.3,2.88,0.6,5.76,0.92,8.87
	c5.83-3.37,10.78-5.95,15.45-9.07c1.61-1.07,3-3.25,3.66-5.27c1.2-3.7,1.78-7.65,2.62-11.49c-0.24-2.74-0.48-5.48-0.9-10.17
	C475.32,357.05,475.04,357.84,474.75,358.63z M399.25,355.8c13.77-12.73,14.06-13.13,14.03-20.5c-7.23,4.37-12.18,10.66-16.55,17.67
	c-2.52,2.74-5.87,4.99-7.39,8.31c-3.98,8.73-7.17,17.92-11.02,27.83c2.34,0.24,3.75,0.39,5.12,0.53
	C385.69,376.06,393.91,366.79,399.25,355.8z M238.17,378.41c-5.26,2.2-6.2,6.04-3.95,11.54c5.56-0.38,3.59-6.68,6.47-8.72
	c8.86-10,14.73-23.1,25.21-31.72c1.42,1.2,2.37,2,3.65,3.08c12.89-10.13,25.99-20.41,39.09-30.7c2.64-1.49,5.29-2.98,8.2-4.62
	c-0.93-1.86-1.47-2.94-2.43-4.86c-2.96,2.38-5.62,4.52-8.28,6.66c-2.73,1.65-5.32,3.75-8.21,4.85c-6.81,2.6-11.72,9.56-18.22,11.46
	c-5.37,1.57-8.53,3.61-10.25,9.79c-3.5-1.22-6.77-2.35-9.45-3.29C252.57,354.3,245.37,366.36,238.17,378.41z M379.11,296.46
	c-1.67,0-3.77-0.73-4.94,0.14c-3.25,2.41-6.65,2.93-10.34,2.7c-3.49-0.22-6.5,2.05-10.6,0.39c-4.52-1.82-5.85,0.87-6.62,9.1
	c2.84,2.48,5.46,4.78,7.91,6.93c-7.39,11.65-14.06,22.17-20.37,32.12c0,5.76,0,10.8,0,15.89c4.32,1.67,8.35,3.22,11.98,4.62
	c4.32,3.36,3.08,10.35,7.81,12.88c1.23,2.77,2.46,5.55,3.8,8.58c1.6-1.95,2.63-3.2,3.87-4.71c-1.9-1.42-3.53-2.65-5.16-3.87
	c-1.29-9.55-3.68-17.98-13.85-20c-1.61-0.32-2.85-3-4.88-5.28c1.89-4.24,3.07-8.61,5.44-11.87c6.71-9.21,13.92-17.96,21.23-27.28
	c-0.93-3.52-1.89-7.19-2.98-11.3c1.67-0.24,3.06,0,3.95-0.63c4.42-3.15,11.54-0.75,13.67-10.6c0.04,0.81,0.07,1.63,0.11,2.44
	c1.64-0.36,3.28-0.72,4.92-1.08c-0.07-0.61-0.15-1.22-0.22-1.82C382.25,293.96,380.65,294.11,379.11,296.46z M370.64,152.51
	c-7.34-7.6-14.87-9.01-20.03-8.75c-4.52,3.46-7.25,5.55-9.55,7.31c2.38,8.88,6.84,13.79,13.94,15.4
	C359.98,162.02,364.9,157.63,370.64,152.51z M478.51,341.7c-0.44,0.19-0.88,0.39-1.33,0.58c0.21,3.47,0.42,6.94,0.49,8.06
	c1.52-0.45,3.64-1.08,3.78-1.12C480.32,346.34,479.42,344.02,478.51,341.7z M402.14,278.36c-0.56-0.62-1.11-1.24-1.67-1.86
	c-1.12,0.24-2.25,0.48-3.9,0.84c0.33,1.96,0.59,3.53,1.18,7.06C399.88,281.47,401.01,279.92,402.14,278.36z"/>
<path class="st1" d="M268.37,327.55c-7.53-7.71-10.86-14.37-12.64-24.28c-0.61-3.4-1.88-6.64-3.14-10.94
	c6.25-2.83,12.2-5.52,18.39-8.32c-1.24-1.48-2.33-2.77-3.83-4.55c-6.53,0.49-13.34,0.07-18.26-6.27
	c-3.89-12.85,5.18-23.23,4.74-35.69c6.82-1.08,13.48-2.58,20.2-3.09c7.04-0.53,14.14-0.12,20.93-0.12c1.45-1.6,2.64-2.92,3.83-4.24
	c-13.2-5.07-27.72-4.49-40.51-11.18c7.48-17.21,16.32-32.22,29.1-43.76c6.52-5.88,14.61-9.44,20.05-16.96
	c8.32,0.38,13.71-8.59,23.08-8.75c1.08,3.53,2.28,7.47,3.49,11.41c-0.84,0.94-1.68,1.88-2.52,2.83c-0.84,0.71-1.68,1.42-2.52,2.14
	c0.84,1.17,1.68,2.34,2.52,3.51c-0.84,10.33-0.38,21.07-2.85,30.88c-3.09,12.28-1.3,25.67-7.22,37.13
	c0.96,13.27-4.32,26.03-2.52,39.37c-3.45,0.04-2.58,3.03-2.46,5.03c0.61,9.88-2.46,18.33-7.61,26.05c-2.72,0.42-5.25,0.22-8.15,1.7
	C289.57,315.05,279.01,321.37,268.37,327.55z"/>
<path class="st2" d="M469.72,296.46c-2.52,0-5.03,0-7.55,0c-2.56-0.94-5.25-2.99-7.65-2.63c-10.3,1.54-20.01-3.03-30.1-3.02
	c0-3.3,0-6.59,0-9.89c-1.48-1.66-2.97-3.33-4.74-5.32c0-24.49,0-49.31,0-74.52c1.05-0.29,2.18-0.6,4.27-1.17c0-5.77,0-12.08,0-18.52
	c8.25-1.27,16.32-1.24,19.12-12.36c5.73,6.44,11.41,12.45,16.71,18.86c4.97,6.03,10.36,11.94,14.05,18.91
	c3.71,7.01,5.26,15.41,8.32,22.92c3,7.37,5.27,14.8,5.27,23.67c-3.71,0-7.33,0-11.29,0c-1.49,2.54-2.88,4.9-3.67,6.24
	c-6.43-1.36-11.49-2.42-16.01-3.38c-2.18,2.45-3.66,4.11-5.31,5.97c-4.6,0.28-9.37,0.57-14.15,0.85c0.01,0.77,0.01,1.53,0.02,2.3
	c5.72,0,11.88-1.49,17.05,0.42c5.23,1.93,10.27,2.91,15.42,2.25c5.92-0.76,11.04,2.23,16.72,3.85c1.7,11.1-0.8,22.75-7.36,32.7
	c-2.2-1.77-4.4-3.54-6.6-5.31C471.4,298.35,470.56,297.4,469.72,296.46z"/>
<path class="st3" d="M61.99,392.54c211.18,0,422.35,0,633.53,0c3.77,0,7.55,0.15,11.31-0.13c0.72-0.05,1.33-1.76,2-2.7
	c12.47,0,24.93,0,37.5,0c0,2.26,0,3.54,0,5.65c-231.64,0-463.02,0-694.4,0c0.99-0.94,1.88-2.5,2.98-2.7
	C57.21,392.25,59.62,392.54,61.99,392.54z"/>
<path class="st4" d="M728.72,576.22c0,2.21,0,3.49,0,5.65c-2.21,0-4.21,0.16-6.18-0.03c-20.69-1.99-41.39,0.69-61.67,3.54
	c-19.49,2.74-38.74,0.83-58.06,2.11c-6.02,0.4-12.14-1-17.87,2.71c-1.54,1-4.02,0.15-7.32,0.15c1.09-3.84,2.63-6.94,2.65-10.05
	c0.02-2.79-1.63-5.6-2.98-9.73c3.26,0,6.18-1,7.91,0.18c5.76,3.92,11.89,2.55,17.89,2.59c21.35,0.13,42.7,0.19,64.05-0.01
	c10.22-0.09,19.95,4.16,30.37,3.11C707.78,575.41,718.2,576.22,728.72,576.22z"/>
<path class="st4" d="M34.13,581.87c0.24-2.71,0.32-3.61,0.4-4.51c0.71-0.39,1.4-1.08,2.11-1.1c33.56-0.99,67.12-1.97,100.68-2.84
	c7.95-0.21,15.91,0.11,23.86-0.08c5.59-0.14,11.31,1.35,16.65-2.58c1.7-1.25,4.74-0.2,8.09-0.2c-5.52,6.82-2.47,12.47,0.36,19.01
	c-2.76,0.32-4.92,1.33-6.48,0.64c-9.93-4.37-20.25-2.25-30.4-2.67c-4.6-0.19-9.25-0.47-13.81,0.05c-17.39,1.97-34.37-4.36-51.71-2.9
	c-14.07-5.5-28.62-1.71-42.91-2.8C38.97,581.74,36.95,581.87,34.13,581.87z"/>
<path class="st5" d="M250.75,536.37c-2.01,0-3.15,0-4.55,0c0-31.07,0-61.86,0-92.87c10.1,6.4,13.52,18.15,19.48,27.5
	c9.37,14.71,17.56,30.37,26.41,45.51c0.99,1.69,3.05,2.58,5.12,4.26c0.64-2.14,1.59-3.61,1.27-4.5
	c-4.01-11.13-2.13-22.75-2.38-34.16c-0.24-11.29-0.05-22.58-0.05-34.73c1.79-1.34,3.93-2.93,7.07-5.27c0,32.39,0,63.17,0,95.31
	c-2.29-1.34-4.15-1.94-5.41-3.26c-9.17-9.62-14.7-22.26-21.73-33.64c-7.59-12.26-14.7-24.89-22.06-37.33
	c-0.13-0.22-0.8-0.03-2.29-0.03c-1.98,12.09-0.54,24.49-0.82,36.76C250.54,512.04,250.75,524.15,250.75,536.37z"/>
<path class="st6" d="M451.19,445.84c0.5,1.8,0.99,3.6,1.49,5.4c0.65-0.49,1.29-0.98,1.94-1.46c0,11.2,0.35,22.41-0.1,33.59
	c-0.42,10.44-1.69,20.84-2.62,31.61c-4.68,7.43-5.53,18.98-16,21.6c-7.52,0-15.04,0-22.69,0c-4.61-5.15-9.32-10.41-13.51-15.09
	c-5.56-25-1.73-49.67-3.16-74.41c1.54-0.42,2.67-0.74,4.5-1.24c2.85,25.01-2.69,50.23,2.26,75.8c1.98,1.68,3.88,3.51,5.97,5
	c1.96,1.4,4.12,2.44,7.15,4.2c5.55,0,12.21,0,19.89,0c3.36-4.51,7.22-9.69,10.68-14.34c-0.28-12.37,3.66-23.3,2.79-34.98
	c-0.86-11.55-0.19-23.24-0.19-34.87C450.12,446.37,450.65,446.11,451.19,445.84z"/>
<path class="st7" d="M538.46,535.7c-5.62,2.06-6.94-1.11-8.37-4.65c-3.85-9.49-8.96-18.03-16.12-25.21c-7.65,0-15.49,0-23.75,0
	c0,9.99,0,19.74,0,29.65c-1.44,0.56-2.54,0.98-3.53,1.36c-0.74-0.78-1.78-1.36-1.79-1.95c-0.1-10.31-0.07-20.63-0.07-32.15
	c8.38,0,16.63,0.07,24.87-0.02c12.67-0.12,22.8-11.48,22.95-25.64c0.04-4.21,0.01-8.42,0.01-12.5c-3.68-4.13-7.23-8.12-11.21-12.58
	c-11.6,0-23.63,0-35.92,0c-0.35-1.66-0.61-2.94-0.86-4.14c0.8-0.64,1.43-1.58,2.06-1.58c11.31-0.09,22.61-0.06,36.05-0.06
	c0.54,0.87,1.55,4.35,3.48,5.21c4.44,1.98,7.41,4.62,9,9.88c2.51,8.31,3.96,16.42,0.84,24.93c-0.75,2.03-0.81,4.37-1.36,7.56
	c-3.34,3.17-7.34,6.95-12.44,11.78C524.73,516,533.14,524.21,538.46,535.7z"/>
<path class="st8" d="M552.99,535.43c1.37-2.63,3.7-5.14,3.95-7.9c1.09-12.16,7.76-21.84,10.96-33.01
	c3.21-11.17,7.66-21.82,10.9-33.02c1.54-5.31,2.82-13.32,10.61-15.87c4.08,14.18,11.76,26.28,14.05,41.31
	c1.19,7.82,5.99,14.97,9.29,22.36c2.95,6.61,3.39,14.38,7.81,20.39c0.97,1.32,0.14,4.3,0.14,6.35c-1.61,0.31-2.39,0.46-3.79,0.73
	c-9.5-27.24-19.04-54.62-29.52-84.7c-2.96,8.56-4.99,14.27-6.91,20.04c-0.95,2.85-1.17,6.2-2.64,8.61
	c-3.47,5.68-4.34,12.09-5.82,18.5c-1.33,5.79-4.55,11-6.61,16.62c-2.07,5.62-3.43,11.58-5.75,17.05c-0.83,1.95-3.54,2.89-5.4,4.29
	C553.84,536.6,553.42,536.02,552.99,535.43z"/>
<path class="st9" d="M150.65,447.46c-9.74,28.68-19.45,57.37-29.29,86c-0.52,1.51-2.17,2.52-4.07,4.63
	c-2.72-5.21-6.67-9.46-6.86-13.91c-0.33-7.56-7.02-12.34-5.69-20.07c-7.97-17.93-12-37.65-20.07-55.54c-0.13-0.3,0.16-0.83,0.31-1.5
	c4.24-2.62,6.35,1.04,7.08,4.34c4.32,19.53,13.27,37.2,17.75,56.63c5.81,5.05,2.98,14.82,8.39,19.85c3.08-8.36,6.26-16.63,9.2-25.01
	c2.84-8.1,4.51-16.65,7.55-24.69c3.48-9.19,6.64-18.54,10.18-27.69c0.68-1.76,2.51-2.96,3.81-4.41
	C149.51,446.56,150.08,447.01,150.65,447.46z"/>
<path class="st10" d="M323.97,451.91c0-2.23,0-3.5,0-5.22c18.39,0,36.54,0,54.92,0c0,1.73,0,3,0,4.73c-8.02,0-15.86,0-24.47,0
	c0,28.35,0,56.26,0,84.36c-1.84,0.48-2.97,0.78-4.03,1.06c-0.57-0.89-1.42-1.59-1.42-2.3c-0.07-26.23-0.06-52.46-0.06-78.42
	c-1.12-1.26-2.01-2.26-3.75-4.21C338.75,451.91,331.43,451.91,323.97,451.91z"/>
<path class="st11" d="M689.04,448.03c-1.48,0.64-2.97,1.27-4.45,1.91c0.35,0.54,0.7,1.08,1.04,1.63c-6.99,0-13.99,0-21.76,0
	c0,28.35,0,56.27,0,84.41c-1.86,0.38-3,0.61-4.96,1c0-28.25,0-56.16,0-85.02c-8.88,0-17.04,0-25.37,0c0-2.23,0-3.5,0-5.24
	c18.35,0,36.51,0,54.67,0C688.49,447.14,688.76,447.58,689.04,448.03z"/>
<path class="st12" d="M29.71,486.7c-1.39-6.52-0.78-12.5,2.39-16.4c5.82-7.15,3.31-19.6,12.78-24.73c7.2,11.6,9.98,24.8,14.56,37.08
	c1.34,3.6,1.6,7.91,3.48,11.04c6.85,11.42,7.83,25.55,14.08,37.22c0.69,1.29,0.09,3.46,0.09,5.04c-1.54,0.36-2.31,0.54-4,0.94
	c-7.56-28-20.17-53.97-27.47-82.81c-7.34,2.96-6.29,11.28-8.28,16.58C35.2,476.34,34.02,482.04,29.71,486.7z"/>
<path class="st13" d="M318.71,276.68c-1.8-13.34,3.48-26.1,2.52-39.37c5.92-11.47,4.13-24.86,7.22-37.13
	c2.47-9.81,2.01-20.55,2.85-30.88c3.77-0.24,2.14-3.51,2.52-5.65c0.84,0,1.68,0,2.52,0c0,4.71,0,9.42,0,14.13
	c-0.84,1.48-2.34,2.92-2.41,4.44c-0.72,14.33-6.15,27.79-5.41,42.52c0.37,7.37-1.33,15.29-2.93,22.4
	c-2.05,9.08-4.7,17.82-4.46,27.33C321.13,275.19,319.55,275.95,318.71,276.68z"/>
<path class="st12" d="M30.24,485.79c-2.29,10.06-4.51,19.84-7,30.78c-0.6,0.67-2.07,2.32-3.95,4.43c0,3.61,0,7.69,0,12.72
	c-2.9,1.3-5.75,2.58-9,4.04c-0.56-2.28-0.94-3.51-1.14-4.77c-0.14-0.91-0.29-1.99,0.01-2.78c2.88-7.57,8.6-13.6,9.96-21.95
	c1.37-8.36,6.28-14.81,8.93-22.46C28.12,485.66,28.85,485.79,30.24,485.79z"/>
<path class="st14" d="M709.07,536.17c0-1.76,0-3.03,0-4.67c15.06,0,29.86,0,44.81,0c0,1.76,0,3.03,0,4.67
	C738.83,536.17,724.02,536.17,709.07,536.17z"/>
<path class="st15" d="M753.9,489.08c0,1.73,0,3,0,4.73c-15.03,0-29.84,0-44.86,0c0-1.73,0-3,0-4.73
	C724.07,489.08,738.88,489.08,753.9,489.08z"/>
<path class="st16" d="M172.73,450.47c0-1.88-0.02-2.76,0-2.76c13.95-0.74,27.91-1.43,42.08-2.13c0.41,2.26,0.64,3.54,0.86,4.76
	c-0.82,0.59-1.47,1.47-2.13,1.48c-12.94,0.08-25.89,0.08-38.83,0C174.05,451.82,173.39,450.94,172.73,450.47z"/>
<path class="st17" d="M170.21,533.71c2.54-0.9,5.07-2.51,7.63-2.57c11.22-0.29,22.44-0.12,32.33-0.12c2.46,1.65,4.09,2.74,7.78,5.21
	c-17.67,0-32.43,0-47.19,0C170.58,535.38,170.4,534.54,170.21,533.71z"/>
<path class="st18" d="M169.35,491c2.05-2.3,2.93-3.29,4.22-4.74c12.35,0,25.13,0,37.47,0c1.63,1.14,3.23,2.26,6.8,4.74
	C200.3,491,185.54,491,169.35,491z"/>
<path class="st19" d="M61.99,392.54c-2.37,0-4.78-0.29-7.09,0.13c-1.09,0.2-1.99,1.76-2.98,2.7c-11.61,0-23.22,0-35.01,0
	c0-2.2,0-3.47,0-5.65c15.17,0,30.12,0,45.08,0C61.99,390.66,61.99,391.6,61.99,392.54z"/>
<path class="st20" d="M424.42,290.81c10.1-0.01,19.8,4.56,30.1,3.02c2.4-0.36,5.09,1.69,7.65,2.63c0.63,0.94,1.18,1.98,1.93,2.8
	c0.95,1.05,2.07,1.91,3.11,2.85c-4.99-0.94-9.95-2.11-14.96-2.76c-5.04-0.66-9.95,0.13-15.11-2.47c-4.1-2.06-9.69-0.25-14.6-0.54
	c-1.09-0.07-2.1-1.76-3.15-2.7C421.29,293.21,424.2,295.04,424.42,290.81z"/>
<path class="st21" d="M268.37,327.55c10.64-6.18,21.2-12.5,32.12-18.08c2.89-1.48,5.42-1.28,8.15-1.7
	c-6.92,6.66-14.28,11.85-23.46,14.51c-6.04,1.75-11.24,7.15-16.81,10.92C268.37,331.31,268.37,329.43,268.37,327.55z"/>
<path class="st22" d="M709.87,446.6c14.56,0,29.11,0,44.13,0c-1.6,4.23-4.11,6.35-7.5,5.18c-9.86-3.4-19.49-3.91-29.47-0.18
	c-2.28,0.85-5.59-1.78-8.43-2.81C709.02,448.07,709.44,447.34,709.87,446.6z"/>
<path class="st23" d="M364.01,138.21c-7.05-1.07-14.55,2.39-21.51-2.24c-1.82,1.5-4,3.28-6.18,5.07c0-4.52,0-9.04,0-13.85
	c2.28-0.15,3.85-0.25,6.01-0.39c2.06,2.9,4.33,6.1,6.11,8.6c5.09,0,8.77-0.22,12.4,0.13C361.96,135.62,362.96,137.27,364.01,138.21z
	"/>
<path class="st3" d="M706.31,389.71c-11.96,0-23.91,0.03-35.87-0.04c-1.81-0.01-4.39,1-4.4-2.79c11.96,0,23.91-0.03,35.87,0.04
	C703.71,386.94,706.29,385.93,706.31,389.71z"/>
<path class="st13" d="M331.29,163.65c0.84-0.94,1.68-1.88,2.52-2.83c0,0.94,0,1.88,0,2.83
	C332.97,163.65,332.13,163.65,331.29,163.65z"/>
<path class="st20" d="M469.72,296.46c0.84,0.94,1.68,1.88,2.52,2.83C471.4,298.35,470.56,297.4,469.72,296.46z"/>
<path class="st24" d="M348.91,174.95c5.32-2.18,10.64-4.36,17.28-7.08c0.6,8.87,0.22,16.47,0.34,24.03
	c-4.87-0.95-1.61-5.21-2.51-7.78c-1.04-2.98,2.35-7.51-2.52-9.17c-3.42,2.08-6.83,4.16-10.71,6.52c0.81,3.97,1.62,7.36,2.19,10.8
	c1.23,7.38,2.66,14.75,3.41,22.2c1.13,11.24,1.76,22.55,2.59,33.83c0.03,0.46-0.16,1.22,0.03,1.36c5.55,4.08,1.24,10.99,3.78,16.53
	c2.38,5.19,0.97,12.57,1.23,18.98c-0.38,2.14,1.25,5.41-2.52,5.65c-0.84,0-1.68,0-2.52,0c-0.84-4.78-2.05-9.53-2.42-14.35
	c-0.42-5.6,1.44-12.07-0.46-16.73c-2.81-6.85-0.19-14.19-2.51-19.99c-2.94-7.35-1.33-14.45-2.25-21.56
	c-0.17-1.32-1.58-2.44-2.42-3.66c0-3.58,0.21-7.19-0.12-10.74c-0.11-1.21-1.56-2.27-2.4-3.39c0-0.94,0-1.88,0-2.83
	c0-1.88,0-3.77,0-5.65c0-2.83,0-5.65,0-8.48c0-1.88,0-3.77,0-5.65C347.23,176.83,348.07,175.89,348.91,174.95z"/>
<path class="st25" d="M379.11,296.46c-2.2,7.65-9.32,5.26-13.74,8.41c-0.89,0.63-2.27,0.39-3.95,0.63c1.08,4.12,2.05,7.78,2.98,11.3
	c-7.31,9.32-14.52,18.07-21.23,27.28c-2.38,3.26-3.55,7.63-5.44,11.87c2.03,2.28,3.27,4.96,4.88,5.28
	c10.17,2.01,12.56,10.45,13.85,20c-0.84,0-1.68,0-2.52,0c-4.72-2.54-3.49-9.52-7.81-12.88c-3.63-1.4-7.66-2.95-11.98-4.62
	c0-5.09,0-10.13,0-15.89c6.31-9.95,12.98-20.47,20.37-32.12c-2.45-2.15-5.07-4.44-7.91-6.93c0.77-8.24,2.11-10.93,6.62-9.1
	c4.1,1.65,7.11-0.61,10.6-0.39c3.69,0.23,7.09-0.29,10.34-2.7C375.34,295.74,377.44,296.46,379.11,296.46z"/>
<path class="st26" d="M346.39,197.56c0,0.94,0,1.88,0,2.83c-0.84,0.94-1.68,1.88-2.52,2.83c-0.84,0-1.68,0-2.52,0
	c0-4.71,0-9.42,0-14.13c-0.28-1.79-0.57-3.58-0.85-5.37c-0.55,0.07-1.11,0.14-1.66,0.2c0,1.72,0,3.44,0,5.17
	c-0.84,0.94-1.68,1.88-2.52,2.83c-0.84,11.36,0.06,23.37-3.09,33.86c-2.34,7.79-0.84,15.72-3.99,23.49
	c-3.01,7.43-2.01,16.86-3.05,25.36c-0.42,3.43-1.87,6.7-2.38,10.13c-0.53,3.61-0.37,7.33-0.75,10.97c-0.09,0.91-1.07,1.7-1.59,2.46
	c2.4,2.6,6.73-1.48,7.3,3.94c-3.36,0-6.71,0-10.07,0c0-8.48,0-16.96,0-25.43c0.84-0.74,2.42-1.49,2.4-2.2
	c-0.24-9.52,2.41-18.25,4.46-27.33c1.6-7.12,3.3-15.03,2.93-22.4c-0.74-14.73,4.69-28.19,5.41-42.52c0.08-1.53,1.58-2.96,2.41-4.44
	c1.53-0.31,3.09-0.52,4.59-0.95c1.85-0.53,3.65-1.24,5.48-1.88c0,0.94,0,1.88,0,2.83c-0.84,0.71-1.68,1.42-2.52,2.14
	c0.84,1.17,1.68,2.34,2.52,3.52c0,2.83,0,5.65,0,8.48c-0.84,0.71-1.68,1.42-2.52,2.14C344.72,195.21,345.55,196.38,346.39,197.56z"
	/>
<path class="st27" d="M361.49,174.95c4.87,1.66,1.48,6.19,2.52,9.17c0.9,2.57-2.36,6.83,2.51,7.78c0,1.41,0,2.81,0,4.22
	c3.22,1.39,6.45,2.79,10.07,4.35c0,11.27,0,21.95,0,32.63c0,18.3,0.75,21.31,9.8,39.06c0,4.99,0,10.01,0,13.99
	c-6.4,2.45-12.21,4.89-18.14,6.84c-2.36,0.78-5.66,2.94-6.75-2.18c3.77-0.24,2.14-3.51,2.52-5.65c1.72,1,3.43,2,5.1,2.98
	c3.55-4.29,11.04-1,12.81-10.23c-2.98-8.93-6.38-19.09-10.52-31.45c2.47-12.86-2.26-27.54-2.84-41.75
	c-2.74-2.03-5.03-3.72-7.07-5.23C361.49,190.91,361.49,182.93,361.49,174.95z"/>
<path class="st28" d="M341.36,189.08c0,4.71,0,9.42,0,14.13c0,2.83,0,5.65,0,8.48c-3.77,0.24-2.14,3.51-2.52,5.65
	c0,3.75,0.33,7.55-0.09,11.24c-0.44,3.89-1.93,7.62-2.36,11.51c-1.05,9.43-0.98,19.11-2.95,28.26c-0.82,3.82-1.8,7.58-2.24,11.58
	c-0.47,4.35-1.8,8.58-2.29,12.93c-0.12,1.07,1.53,2.4,2.37,3.61c0.21,4.23,3.13,2.4,5.03,2.83c0.84,0,1.68,0,2.52,0
	c0,0.94,0,1.88,0,2.83c-0.67,3.99-2.47,3.22-4.86,1.73c-1.55-0.96-3.46-1.18-5.21-1.73c-0.57-5.42-4.9-1.33-7.3-3.94
	c0.51-0.76,1.49-1.55,1.59-2.46c0.37-3.64,0.22-7.37,0.75-10.97c0.5-3.43,1.95-6.7,2.38-10.13c1.05-8.51,0.04-17.94,3.05-25.36
	c3.15-7.77,1.65-15.7,3.99-23.49c3.15-10.48,2.25-22.5,3.09-33.86c0.84-0.94,1.68-1.88,2.52-2.83
	C339.68,189.08,340.52,189.08,341.36,189.08z"/>
<path class="st29" d="M308.64,321.89c-13.1,10.29-26.2,20.58-39.09,30.7c-1.29-1.08-2.23-1.88-3.65-3.08
	c-10.48,8.62-16.35,21.72-25.21,31.72c-0.84-0.94-1.68-1.88-2.52-2.83c7.2-12.05,14.41-24.11,21.83-36.53
	c2.68,0.93,5.95,2.07,9.45,3.29c1.72-6.18,4.88-8.22,10.25-9.79c6.5-1.9,11.41-8.86,18.22-11.46c2.89-1.1,5.48-3.21,8.21-4.85
	C306.96,320.01,307.8,320.95,308.64,321.89z"/>
<path class="st30" d="M370.64,152.51c-5.74,5.12-10.66,9.52-15.64,13.96c-7.09-1.61-11.56-6.52-13.94-15.4
	c2.3-1.76,5.02-3.85,9.55-7.31C355.77,143.5,363.31,144.91,370.64,152.51z"/>
<path class="st31" d="M453.22,381.37c-1.21-1.79-3.26-3.46-3.49-5.4c-1.06-8.84-4.52-16.76-8.02-24.36
	c-3.24-7.05-4.92-13.93-4.75-21.7c0.18-8.27,0.04-16.55,0.04-26.16c2.33,2.48,3.48,3.7,5.04,5.36c-0.08,8.11,1,16.51,2.06,24.95
	c1.01,8.07,3.62,15.26,5.5,22.84c1.99,8,4.1,15.96,6.16,23.94C454.91,381.02,454.07,381.2,453.22,381.37z"/>
<path class="st32" d="M338.84,217.34c0.38-2.14-1.25-5.41,2.52-5.65c0.84,0,1.68,0,2.52,0c0.84,0.94,1.68,1.88,2.52,2.83
	c0,3.77,0,7.54,0,11.3c0.84,4.73,2.02,9.42,2.45,14.2c1.05,11.69,1.73,23.41,2.61,35.12c0.1,1.29,0.13,2.95,0.82,3.76
	c3.1,3.65,1.26,7.57,1.42,10.87c-3.31,2.86-8.12-2.14-9.81,3.87c-1.68,2.83-3.36,5.65-5.03,8.48c0-0.94,0-1.88,0-2.83
	c0.28-2.67-0.3-6.4,1.04-7.79c2.4-2.49,5.95-3.58,9.16-5.33c-1.1-8.89,2.04-18.33-2.65-26.84c0.59-14.06-5.09-27.08-5.5-40.99
	C340.88,217.97,339.55,217.67,338.84,217.34z"/>
<path class="st33" d="M343.88,293.64c1.69-6.01,6.5-1.01,9.81-3.87c-0.16-3.3,1.68-7.22-1.42-10.87c-0.69-0.81-0.72-2.47-0.82-3.76
	c-0.88-11.71-1.56-23.43-2.61-35.12c-0.43-4.78-1.61-9.47-2.45-14.2c0.84-1.11,2.23-2.12,2.4-3.34c0.37-2.59,0.11-5.3,0.11-7.96
	c0.84,1.21,2.25,2.34,2.42,3.66c0.93,7.12-0.69,14.21,2.25,21.56c2.32,5.81-0.3,13.14,2.51,19.99c1.91,4.66,0.04,11.13,0.46,16.73
	c0.36,4.83,1.58,9.57,2.42,14.35C354.42,294.97,349.02,293.41,343.88,293.64z"/>
<path class="st34" d="M399.25,355.8c-5.34,10.99-13.56,20.26-15.8,33.84c-1.37-0.14-2.78-0.29-5.12-0.53
	c3.85-9.91,7.03-19.1,11.02-27.83c1.51-3.32,4.87-5.57,7.39-8.31C397.57,353.92,398.41,354.86,399.25,355.8z"/>
<path class="st31" d="M477.27,364.28c-0.84,3.85-1.42,7.8-2.62,11.49c-0.66,2.02-2.05,4.2-3.66,5.27c-4.67,3.11-9.62,5.7-15.45,9.07
	c-0.32-3.11-0.62-5.99-0.92-8.87c1.06,0.56,2.11,1.12,3.78,2c2.88-2.16,6.3-4.72,9.86-7.39c3.21-5.17,1.66-12.73,6.5-17.22
	C475.13,360.77,473.51,364.04,477.27,364.28z"/>
<path class="st35" d="M399.25,355.8c-0.84-0.94-1.68-1.88-2.52-2.83c4.37-7.01,9.31-13.3,16.55-17.67
	C413.3,342.68,413.02,343.08,399.25,355.8z"/>
<path class="st36" d="M318.71,276.68c0,8.48,0,16.96,0,25.43c-0.84,0.94-1.68,1.88-2.52,2.83c-2.52,0.94-5.03,1.88-7.55,2.83
	c5.15-7.72,8.21-16.17,7.61-26.05C316.13,279.71,315.26,276.72,318.71,276.68z"/>
<path class="st3" d="M238.17,378.41c0.84,0.94,1.68,1.88,2.52,2.83c-2.87,2.04-0.9,8.34-6.47,8.72
	C231.97,384.45,232.91,380.61,238.17,378.41z"/>
<path class="st37" d="M308.64,321.89c-0.84-0.94-1.68-1.88-2.52-2.83c2.66-2.14,5.32-4.28,8.28-6.66c0.96,1.92,1.5,3,2.43,4.86
	C313.93,318.91,311.28,320.4,308.64,321.89z"/>
<path class="st38" d="M478.51,341.7c0.91,2.32,1.81,4.64,2.94,7.52c-0.14,0.04-2.26,0.67-3.78,1.12c-0.07-1.12-0.28-4.59-0.49-8.06
	C477.63,342.09,478.07,341.89,478.51,341.7z"/>
<path class="st39" d="M353.94,381.24c0.84,0,1.68,0,2.52,0c1.63,1.22,3.26,2.45,5.16,3.87c-1.24,1.51-2.27,2.76-3.87,4.71
	C356.4,386.78,355.17,384.01,353.94,381.24z"/>
<path class="st40" d="M402.14,278.36c-1.13,1.56-2.26,3.11-4.39,6.04c-0.59-3.52-0.85-5.1-1.18-7.06c1.65-0.35,2.78-0.6,3.9-0.84
	C401.03,277.12,401.59,277.74,402.14,278.36z"/>
<path class="st41" d="M477.27,364.28c-3.77-0.24-2.14-3.51-2.52-5.65c0.28-0.79,0.57-1.58,1.62-4.52
	C476.79,358.8,477.03,361.54,477.27,364.28z"/>
<path class="st25" d="M379.05,294.27c1.6-0.15,3.21-0.31,4.81-0.46c0.07,0.61,0.15,1.22,0.22,1.82c-1.64,0.36-3.28,0.72-4.92,1.08
	C379.12,295.9,379.08,295.08,379.05,294.27z"/>
<path class="st13" d="M346.39,177.78c0-0.94,0-1.88,0-2.83c0.84,0,1.68,0,2.52,0C348.07,175.89,347.23,176.83,346.39,177.78z"/>
<path class="st26" d="M316.19,304.94c0.84-0.94,1.68-1.88,2.52-2.83C317.87,303.06,317.03,304,316.19,304.94z"/>
<path class="st13" d="M331.29,169.3c-0.84-1.17-1.68-2.34-2.52-3.51c0.84-0.71,1.68-1.42,2.52-2.14
	C331.29,165.53,331.29,167.41,331.29,169.3z"/>
<path class="st42" d="M331.29,169.3c0-1.88,0-3.77,0-5.65c0.84,0,1.68,0,2.52,0C333.43,165.79,335.06,169.06,331.29,169.3z"/>
<path class="st43" d="M361.49,174.95c0,7.98,0,15.96,0,24.53c2.05,1.51,4.33,3.2,7.07,5.23c0.58,14.21,5.31,28.89,2.84,41.75
	c4.13,12.36,7.53,22.53,10.52,31.45c-1.77,9.23-9.26,5.93-12.81,10.23c-1.67-0.98-3.39-1.98-5.1-2.98
	c-0.26-6.41,1.15-13.79-1.23-18.98c-2.54-5.54,1.77-12.45-3.78-16.53c-0.19-0.14,0.01-0.89-0.03-1.36
	c-0.83-11.28-1.46-22.59-2.59-33.83c-0.75-7.45-2.18-14.82-3.41-22.2c-0.57-3.44-1.38-6.83-2.19-10.8
	C354.66,179.11,358.08,177.03,361.49,174.95z"/>
<path class="st33" d="M346.39,214.51c-0.84-0.94-1.68-1.88-2.52-2.83c0-2.83,0-5.65,0-8.48c0.84-0.94,1.68-1.88,2.52-2.83
	c0.84,1.13,2.29,2.18,2.4,3.39c0.32,3.55,0.12,7.15,0.12,10.74C348.07,214.51,347.23,214.51,346.39,214.51z"/>
<path class="st13" d="M346.39,183.43c-0.84-1.17-1.68-2.34-2.52-3.52c0.84-0.71,1.68-1.42,2.52-2.14
	C346.39,179.66,346.39,181.54,346.39,183.43z"/>
<path class="st0" d="M346.39,197.56c-0.84-1.17-1.68-2.34-2.52-3.52c0.84-0.71,1.68-1.42,2.52-2.14
	C346.39,193.79,346.39,195.67,346.39,197.56z"/>
<ellipse class="st13" cx="342.62" cy="207.45" rx="1.78" ry="5.99"/>
<path class="st13" d="M341.36,189.08c-0.84,0-1.68,0-2.52,0c0-1.72,0-3.44,0-5.17c0.55-0.07,1.11-0.14,1.66-0.2
	C340.79,185.5,341.08,187.29,341.36,189.08z"/>
<path class="st13" d="M338.84,189.08c-0.84,0.94-1.68,1.88-2.52,2.83C337.16,190.96,338,190.02,338.84,189.08z"/>
<path class="st44" d="M338.84,217.34c0.71,0.33,2.04,0.63,2.05,0.99c0.41,13.91,6.09,26.93,5.5,40.99
	c4.69,8.51,1.55,17.95,2.65,26.84c-3.2,1.75-6.76,2.84-9.16,5.33c-1.34,1.4-0.76,5.12-1.04,7.79c-0.84,0-1.68,0-2.52,0
	c-0.21-4.23-3.13-2.4-5.03-2.83c-0.84-1.21-2.5-2.54-2.37-3.61c0.49-4.35,1.82-8.58,2.29-12.93c0.43-4,1.41-7.75,2.24-11.58
	c1.97-9.15,1.9-18.83,2.95-28.26c0.43-3.89,1.92-7.62,2.36-11.51C339.17,224.89,338.84,221.09,338.84,217.34z"/>
<path class="st32" d="M331.29,296.46c1.91,0.43,4.82-1.4,5.03,2.83C334.42,298.86,331.51,300.69,331.29,296.46z"/>
<path class="st45" d="M346.39,214.51c0.84,0,1.68,0,2.52,0c0,2.66,0.26,5.37-0.11,7.96c-0.18,1.23-1.56,2.24-2.4,3.34
	C346.39,222.05,346.39,218.28,346.39,214.51z"/>
<path class="st42" d="M11.52,78.29"/>
<path class="st42" d="M139.88-9.31"/>
</svg>
