<?xml version="1.0" encoding="utf-8"?>
<!-- Generator: Adobe Illustrator 23.0.0, SVG Export Plug-In . SVG Version: 6.00 Build 0)  -->
<svg version="1.1" id="Capa_1" xmlns="http://www.w3.org/2000/svg" xmlns:xlink="http://www.w3.org/1999/xlink" x="0px" y="0px"
	 viewBox="0 0 322 216" style="enable-background:new 0 0 322 216;" xml:space="preserve">
<style type="text/css">
	.st0{fill:#473528;}
	.st1{fill:#FECE43;}
	.st2{fill:#FE9D00;}
	.st3{fill:#8B8078;}
	.st4{fill:#524135;}
	.st5{fill:#C29F82;}
	.st6{fill:#C3A17E;}
	.st7{fill:#BF9B7E;}
	.st8{fill:#C3A184;}
	.st9{fill:#C19E81;}
	.st10{fill:#BE9B7C;}
	.st11{fill:#C4A380;}
	.st12{fill:#C4A385;}
	.st13{fill:#F2E8C5;}
	.st14{fill:#C09C7D;}
	.st15{fill:#D1B693;}
	.st16{fill:#BF9E7B;}
	.st17{fill:#C19E7F;}
	.st18{fill:#AB8675;}
	.st19{fill:#6C5E54;}
	.st20{fill:#EBD6B0;}
	.st21{fill:#E3DCB8;}
	.st22{fill:#BC9676;}
	.st23{fill:#9B928B;}
	.st24{fill:#F7F6EE;}
	.st25{fill:#ECEAE9;}
	.st26{fill:#908988;}
	.st27{fill:#ECE5CB;}
	.st28{fill:#F9F7F2;}
	.st29{fill:#F0EFEE;}
	.st30{fill:#F2F1F0;}
	.st31{fill:#D5D1CF;}
	.st32{fill:#F4E4B6;}
	.st33{fill:#999493;}
	.st34{fill:#D1CDCA;}
	.st35{fill:#ABA39E;}
	.st36{fill:#F0E6C2;}
	.st37{fill:#BAB4AF;}
	.st38{fill:#F2F1EF;}
	.st39{fill:#A29A93;}
	.st40{fill:#A19A94;}
	.st41{fill:#FBFAFA;}
	.st42{fill:#FEFEFE;}
	.st43{fill:#FDB511;}
	.st44{fill:#FEBF23;}
	.st45{fill:#594D4C;}
</style>
<path class="st0" d="M30.05,131.89c5.25,0.7,10.46-0.5,15.53-1.25c4.42-0.66,8.85,0.07,13.08-0.86c5.71-1.26,11.51-0.01,17.06-1.05
	c6.37-1.2,12.71-0.34,18.98-0.96c4.2-5.5,8.03-11.24,13.05-16.05c0.86,0.47,1.53,0.84,2.26,1.24c0.68-0.35,1.36-0.71,2.04-1.06
	c2.21-1.33,4.28-3.25,6.68-3.87c3.65-0.94,6.57-2.78,9.32-5.13c1-0.33,2-0.67,3-1c0.33-0.33,0.67-0.67,1-1c1.33,0,2.67,0,4,0
	c0.7,0.2,1.46,0.27,2.07,0.61c0.95,0.53,1.66,0.8,1.93-0.61c0.67-1,1.33-2,2-3c2.04-0.08,4.19,0.47,6-1c0.33,0,0.67,0,1,0
	c0.44,1.81,1.75,1.05,2.68,0.77c2.36-0.69,4.67-1.55,7.21-2.42c0-1.41,0-3.19,0-4.95c-3.59-6.28-3.89-7.35-3.89-13.82
	c0-3.78,0-7.56,0-11.55c-1.44-0.55-2.72-1.04-4-1.54c0-0.5,0-1,0-1.49c-0.05-2.68,0.1-5.37-0.14-8.5c-2.64,0.96-4.75,1.73-6.86,2.5
	c-0.33,0-0.67,0-1,0c-0.72,0.22-1.44,0.48-2.18,0.66c-0.6,0.15-1.22,0.23-1.82,0.34c0-1.67,0-3.33,0-5c2.12-0.73,1.2-2.96,0.79-3.48
	c-1.2-1.5-0.56-3.03-0.79-4.52c0.86-0.63,1.73-1.26,2.45-1.79c2.76,1.64,5.74,0.42,8.55,0.79c1.54,0.23,2.48-0.53,2.99-1.88
	c0.71-1.87,1.29-3.79,2.03-5.65c0.4-1.01,1.01-1.93,1.42-2.71c-0.83-0.83-1.83-1.83-2.11-2.1c-0.77-3.46,0.56-6.05-1.23-8.13
	c1.9-1.3,3.81-2.61,5.52-3.78c1.46,1.55,2.58,2.74,4.24,4.5c0,0.44,0,1.89,0,3.91c-0.47,0.31-1.3,0.85-1.99,1.29
	c0.7,2.66,2.88,3.25,4.83,4.52c2.83,0.31,6.19-0.74,9.27,1.46c0,1.33,0,2.78,0,4.4c1.29,0,2.41,0,3.35,0
	c0.65,0.65,1.12,1.12,1.63,1.63c0,1.28,0,2.6,0,3.88c0.78,0.87,1.52,1.69,2.03,2.27c-1.33,2.51-2.48,4.7-3.63,6.88
	c0.14,0.07,0.28,0.15,0.42,0.22c-0.71,0.71-1.41,1.41-2.3,2.3c-1.28,0-2.73,0-4.03,0c-0.61,0.64-1.06,1.12-1.32,1.4
	c0.38,1.85,0.71,3.51,1,4.91c-1.29,0.8-2.22,1.38-3.13,1.94c0,2.98-0.08,5.81,0.03,8.62c0.07,1.55-0.72,3.33,0.92,4.62
	c0.17,0.13,0.16,0.7,0.03,0.95c-2.06,3.9-0.55,7.79,0.04,11.67c0.4,2.64,0.98,5.25,1.5,7.87c0.01,0.03,0.31,0,0.48,0
	c0.42,0.33,0.82,0.93,1.25,0.95c1.95,0.1,4.17-0.54,5.8,0.19c2.05,0.92,4,0.64,6.01,0.88c1.99,0.23,3.96,0.64,5.94,0.98
	c0.47,0.64,0.81,1.61,1.43,1.85c2.58,0.99,3.97,3.13,5.6,5.12c1.19,1.46,2.64,2.71,4.01,4.02c0.45,0.43,1.07,0.68,1.53,1.1
	c5.34,4.86,10.67,9.74,16.28,14.86c-0.14-0.01,0.19,0.07,0.5,0.05c9.88-0.72,19.65,1.57,29.52,1.01c4.93,1.7,10.03,0.71,15.05,1.04
	c1.71,0.11,3.39,0.63,5.08,0.96c0.01,1.34,1.03,0.98,1.75,0.99c4.75,0.02,9.5,0.01,14.25,0.01c0.33,0,0.67,0,1,0
	c-0.26,0.33-0.51,0.94-0.79,0.95c-1.49,0.1-2.99,0.05-4.49,0.05c-83.9,0-167.81,0-251.71,0C30.05,132.56,30.05,132.23,30.05,131.89z
	 M194.05,120.89c-1.92,1.59-1.31,4.26-2.58,6.09c-1.41,0.94-2.77,1.85-3.92,2.61c-0.66-0.31-1.08-0.51-2.06-0.66
	c0.34-0.06,0.67-0.12,1.01-0.18c-0.82-2.82-1.66-5.64-2.45-8.47c-0.75-2.68-1.78-5.23-2.18-8.08c-0.42-2.99-0.85-5.96-0.82-8.83
	c-0.62-0.59-1.08-1.02-2-1.9c0,3.4,0.06,6.33-0.02,9.26c-0.07,2.75,0.6,5.18,1.89,7.68c1.39,2.69,2.77,5.49,3.19,8.62
	c0.09,0.69,0.91,1.28,1.94,1.87c0.12,1.02,0.24,2.04,0.37,3.14c2.32-1.19,4.28-2.11,6.14-3.21c0.64-0.38,1.19-1.15,1.45-1.86
	c0.48-1.31,0.71-2.71,1.04-4.07c-0.1-0.97-0.19-1.94-0.36-3.6C194.28,120.33,194.16,120.61,194.05,120.89z M164.05,119.89
	c5.47-4.5,5.59-4.65,5.57-7.25c-2.87,1.55-4.84,3.77-6.57,6.25c-1,0.97-2.33,1.77-2.94,2.94c-1.58,3.09-2.85,6.34-4.38,9.85
	c0.93,0.08,1.49,0.14,2.04,0.19C158.66,127.06,161.93,123.78,164.05,119.89z M100.05,127.89c-2.09,0.78-2.46,2.14-1.57,4.09
	c2.21-0.13,1.43-2.37,2.57-3.09c3.52-3.54,5.85-8.17,10.02-11.23c0.57,0.42,0.94,0.71,1.45,1.09c5.12-3.58,10.33-7.22,15.53-10.86
	c1.05-0.53,2.1-1.06,3.26-1.64c-0.37-0.66-0.58-1.04-0.97-1.72c-1.18,0.84-2.23,1.6-3.29,2.36c-1.08,0.58-2.11,1.33-3.26,1.72
	c-2.71,0.92-4.66,3.38-7.24,4.06c-2.13,0.56-3.39,1.28-4.07,3.46c-1.39-0.43-2.69-0.83-3.76-1.16
	C105.78,119.36,102.91,123.63,100.05,127.89z M156.05,98.89c-0.67,0-1.5-0.26-1.96,0.05c-1.29,0.85-2.64,1.04-4.11,0.95
	c-1.39-0.08-2.58,0.72-4.21,0.14c-1.79-0.64-2.32,0.31-2.63,3.22c1.13,0.88,2.17,1.69,3.14,2.45c-2.94,4.12-5.59,7.84-8.09,11.37
	c0,2.04,0,3.82,0,5.62c1.72,0.59,3.32,1.14,4.76,1.63c1.72,1.19,1.23,3.66,3.1,4.56c0.49,0.98,0.98,1.96,1.51,3.04
	c0.64-0.69,1.05-1.13,1.54-1.67c-0.75-0.5-1.4-0.94-2.05-1.37c-0.51-3.38-1.46-6.36-5.5-7.08c-0.64-0.11-1.13-1.06-1.94-1.87
	c0.75-1.5,1.22-3.05,2.16-4.2c2.67-3.26,5.53-6.36,8.43-9.65c-0.37-1.25-0.75-2.54-1.18-4c0.66-0.08,1.21,0,1.57-0.22
	c1.76-1.11,4.59-0.27,5.43-3.75c0.01,0.29,0.03,0.58,0.04,0.86c0.65-0.13,1.3-0.25,1.95-0.38c-0.03-0.22-0.06-0.43-0.09-0.65
	C157.3,98.01,156.66,98.06,156.05,98.89z M152.69,47.95c-2.91-2.69-5.91-3.19-7.96-3.1c-1.8,1.23-2.88,1.96-3.79,2.59
	c0.95,3.14,2.72,4.88,5.54,5.45C148.45,51.32,150.41,49.76,152.69,47.95z M195.54,114.9c-0.18,0.07-0.35,0.14-0.53,0.21
	c0.08,1.23,0.17,2.46,0.19,2.85c0.61-0.16,1.45-0.38,1.5-0.4C196.27,116.54,195.9,115.72,195.54,114.9z M165.2,92.49
	c-0.22-0.22-0.44-0.44-0.66-0.66c-0.45,0.09-0.89,0.17-1.55,0.3c0.13,0.69,0.23,1.25,0.47,2.5C164.3,93.59,164.75,93.04,165.2,92.49
	z"/>
<path class="st1" d="M112.05,109.89c-2.99-2.73-4.32-5.09-5.02-8.59c-0.24-1.2-0.75-2.35-1.25-3.87c2.48-1,4.85-1.95,7.3-2.94
	c-0.49-0.52-0.93-0.98-1.52-1.61c-2.6,0.17-5.3,0.03-7.25-2.22c-1.55-4.55,2.06-8.22,1.88-12.63c2.71-0.38,5.36-0.91,8.03-1.09
	c2.8-0.19,5.62-0.04,8.32-0.04c0.58-0.57,1.05-1.03,1.52-1.5c-5.24-1.8-11.01-1.59-16.09-3.96c2.97-6.09,6.48-11.4,11.56-15.48
	c2.59-2.08,5.81-3.34,7.97-6c3.3,0.13,5.45-3.04,9.17-3.09c0.43,1.25,0.91,2.64,1.38,4.04c-0.33,0.33-0.67,0.67-1,1
	c-0.33,0.25-0.67,0.5-1,0.76c0.33,0.41,0.67,0.83,1,1.24c-0.33,3.65-0.15,7.46-1.13,10.93c-1.23,4.35-0.52,9.08-2.87,13.14
	c0.38,4.7-1.72,9.21-1,13.93c-1.37,0.01-1.03,1.07-0.98,1.78c0.24,3.5-0.98,6.49-3.02,9.22c-1.08,0.15-2.09,0.08-3.24,0.6
	C120.48,105.47,116.28,107.71,112.05,109.89z"/>
<path class="st2" d="M192.05,98.89c-1,0-2,0-3,0c-1.02-0.33-2.08-1.06-3.04-0.93c-4.09,0.54-7.95-1.07-11.96-1.07
	c0-1.17,0-2.33,0-3.5c-0.59-0.59-1.18-1.18-1.88-1.88c0-8.67,0-17.45,0-26.37c0.42-0.1,0.87-0.21,1.7-0.41c0-2.04,0-4.27,0-6.55
	c3.28-0.45,6.49-0.44,7.6-4.37c2.28,2.28,4.53,4.41,6.64,6.68c1.98,2.13,4.12,4.22,5.58,6.69c1.48,2.48,2.09,5.45,3.31,8.11
	c1.19,2.61,2.09,5.24,2.09,8.37c-1.48,0-2.91,0-4.48,0c-0.59,0.9-1.14,1.73-1.46,2.21c-2.55-0.48-4.57-0.86-6.36-1.19
	c-0.87,0.87-1.46,1.46-2.11,2.11c-1.83,0.1-3.72,0.2-5.62,0.3c0,0.27,0.01,0.54,0.01,0.81c2.27,0,4.72-0.53,6.77,0.15
	c2.08,0.68,4.08,1.03,6.13,0.8c2.35-0.27,4.39,0.79,6.64,1.36c0.68,3.93-0.32,8.05-2.92,11.57c-0.87-0.63-1.75-1.25-2.62-1.88
	C192.72,99.56,192.39,99.23,192.05,98.89z"/>
<path class="st3" d="M30.05,132.89c83.9,0,167.81,0,251.71,0c1.5,0,3,0.05,4.49-0.05c0.28-0.02,0.53-0.62,0.79-0.95
	c4.95,0,9.91,0,14.9,0c0,0.8,0,1.25,0,2c-92.03,0-183.97,0-275.9,0c0.39-0.33,0.75-0.88,1.18-0.95
	C28.15,132.79,29.11,132.89,30.05,132.89z"/>
<path class="st4" d="M294.96,197.89c0,0.78,0,1.23,0,2c-0.88,0-1.67,0.06-2.46-0.01c-8.22-0.7-16.45,0.24-24.5,1.25
	c-7.74,0.97-15.39,0.29-23.07,0.75c-2.39,0.14-4.82-0.35-7.1,0.96c-0.61,0.35-1.6,0.05-2.91,0.05c0.43-1.36,1.04-2.46,1.05-3.56
	c0.01-0.99-0.65-1.98-1.18-3.44c1.3,0,2.45-0.35,3.14,0.06c2.29,1.39,4.72,0.9,7.11,0.92c8.48,0.05,16.96,0.07,25.45,0
	c4.06-0.03,7.93,1.47,12.07,1.1C286.64,197.61,290.78,197.89,294.96,197.89z"/>
<path class="st4" d="M18.98,199.89c0.09-0.96,0.13-1.28,0.16-1.59c0.28-0.14,0.56-0.38,0.84-0.39c13.33-0.35,26.67-0.7,40-1.01
	c3.16-0.07,6.32,0.04,9.48-0.03c2.22-0.05,4.49,0.48,6.62-0.91c0.67-0.44,1.88-0.07,3.22-0.07c-2.19,2.41-0.98,4.41,0.14,6.73
	c-1.1,0.11-1.95,0.47-2.58,0.23c-3.95-1.55-8.04-0.8-12.08-0.94c-1.83-0.07-3.67-0.17-5.49,0.02c-6.91,0.7-13.66-1.54-20.54-1.03
	c-5.59-1.95-11.37-0.6-17.05-0.99C20.91,199.85,20.1,199.89,18.98,199.89z"/>
<path class="st5" d="M105.05,183.79c-0.8,0-1.25,0-1.81,0c0-11,0-21.89,0-32.86c4.01,2.27,5.37,6.42,7.74,9.73
	c3.72,5.21,6.98,10.75,10.49,16.11c0.39,0.6,1.21,0.91,2.04,1.51c0.25-0.76,0.63-1.28,0.5-1.59c-1.59-3.94-0.85-8.05-0.94-12.09
	c-0.09-3.99-0.02-7.99-0.02-12.29c0.71-0.47,1.56-1.04,2.81-1.86c0,11.46,0,22.36,0,33.73c-0.91-0.48-1.65-0.69-2.15-1.15
	c-3.64-3.4-5.84-7.88-8.64-11.9c-3.01-4.34-5.84-8.81-8.77-13.21c-0.05-0.08-0.32-0.01-0.91-0.01c-0.79,4.28-0.22,8.67-0.32,13.01
	C104.97,175.18,105.05,179.47,105.05,183.79z"/>
<path class="st6" d="M184.69,151.75c0.2,0.64,0.39,1.27,0.59,1.91c0.26-0.17,0.51-0.35,0.77-0.52c0,3.96,0.14,7.93-0.04,11.89
	c-0.17,3.7-0.67,7.38-1.04,11.19c-1.86,2.63-2.2,6.71-6.36,7.64c-2.99,0-5.97,0-9.02,0c-1.83-1.82-3.7-3.69-5.37-5.34
	c-2.21-8.85-0.69-17.58-1.26-26.33c0.61-0.15,1.06-0.26,1.79-0.44c1.13,8.85-1.07,17.77,0.9,26.82c0.79,0.6,1.54,1.24,2.37,1.77
	c0.78,0.5,1.64,0.86,2.84,1.49c2.2,0,4.85,0,7.9,0c1.34-1.6,2.87-3.43,4.24-5.08c-0.11-4.38,1.45-8.24,1.11-12.38
	c-0.34-4.09-0.07-8.23-0.07-12.34C184.26,151.94,184.48,151.85,184.69,151.75z"/>
<path class="st7" d="M219.36,183.55c-2.23,0.73-2.76-0.39-3.33-1.65c-1.53-3.36-3.56-6.38-6.4-8.92c-3.04,0-6.15,0-9.44,0
	c0,3.53,0,6.99,0,10.49c-0.57,0.2-1.01,0.35-1.4,0.48c-0.29-0.27-0.71-0.48-0.71-0.69c-0.04-3.65-0.03-7.3-0.03-11.38
	c3.33,0,6.61,0.02,9.88-0.01c5.03-0.04,9.06-4.06,9.12-9.07c0.02-1.49,0-2.98,0-4.42c-1.46-1.46-2.87-2.87-4.45-4.45
	c-4.61,0-9.39,0-14.27,0c-0.14-0.59-0.24-1.04-0.34-1.46c0.32-0.23,0.57-0.56,0.82-0.56c4.49-0.03,8.98-0.02,14.33-0.02
	c0.22,0.31,0.62,1.54,1.38,1.84c1.76,0.7,2.94,1.63,3.58,3.5c1,2.94,1.58,5.81,0.33,8.82c-0.3,0.72-0.32,1.55-0.54,2.67
	c-1.33,1.12-2.92,2.46-4.94,4.17C213.91,176.58,217.25,179.49,219.36,183.55z"/>
<path class="st8" d="M225.14,183.46c0.55-0.93,1.47-1.82,1.57-2.79c0.43-4.3,3.08-7.73,4.36-11.68c1.27-3.95,3.04-7.72,4.33-11.69
	c0.61-1.88,1.12-4.71,4.21-5.62c1.62,5.02,4.67,9.3,5.58,14.62c0.47,2.77,2.38,5.3,3.69,7.91c1.17,2.34,1.35,5.09,3.1,7.22
	c0.38,0.47,0.06,1.52,0.06,2.25c-0.64,0.11-0.95,0.16-1.51,0.26c-3.77-9.64-7.56-19.33-11.73-29.97c-1.18,3.03-1.98,5.05-2.75,7.09
	c-0.38,1.01-0.46,2.19-1.05,3.05c-1.38,2.01-1.72,4.28-2.31,6.55c-0.53,2.05-1.81,3.89-2.63,5.88c-0.82,1.99-1.36,4.1-2.28,6.03
	c-0.33,0.69-1.41,1.02-2.15,1.52C225.47,183.87,225.31,183.66,225.14,183.46z"/>
<path class="st9" d="M65.28,152.33c-3.87,10.15-7.73,20.3-11.64,30.43c-0.21,0.53-0.86,0.89-1.62,1.64
	c-1.08-1.84-2.65-3.35-2.73-4.92c-0.13-2.68-2.79-4.37-2.26-7.1c-3.17-6.34-4.77-13.32-7.97-19.65c-0.05-0.1,0.06-0.3,0.12-0.53
	c1.69-0.93,2.52,0.37,2.81,1.54c1.71,6.91,5.27,13.16,7.05,20.04c2.31,1.79,1.19,5.25,3.33,7.03c1.23-2.96,2.49-5.89,3.66-8.85
	c1.13-2.87,1.79-5.89,3-8.74c1.38-3.25,2.64-6.56,4.05-9.8c0.27-0.62,1-1.05,1.51-1.56C64.83,152.01,65.05,152.17,65.28,152.33z"/>
<path class="st10" d="M134.14,153.9c0-0.79,0-1.24,0-1.85c7.31,0,14.52,0,21.82,0c0,0.61,0,1.06,0,1.67c-3.19,0-6.3,0-9.72,0
	c0,10.03,0,19.91,0,29.85c-0.73,0.17-1.18,0.28-1.6,0.38c-0.23-0.31-0.56-0.56-0.56-0.81c-0.03-9.28-0.02-18.56-0.02-27.75
	c-0.45-0.45-0.8-0.8-1.49-1.49C140.02,153.9,137.11,153.9,134.14,153.9z"/>
<path class="st11" d="M279.19,152.53c-0.59,0.22-1.18,0.45-1.77,0.67c0.14,0.19,0.28,0.38,0.41,0.58c-2.78,0-5.56,0-8.65,0
	c0,10.03,0,19.91,0,29.87c-0.74,0.13-1.19,0.21-1.97,0.35c0-10,0-19.87,0-30.09c-3.53,0-6.77,0-10.08,0c0-0.79,0-1.24,0-1.85
	c7.29,0,14.51,0,21.72,0C278.97,152.21,279.08,152.37,279.19,152.53z"/>
<path class="st12" d="M17.23,166.21c-0.55-2.31-0.31-4.42,0.95-5.8c2.31-2.53,1.32-6.94,5.08-8.75c2.86,4.1,3.97,8.77,5.78,13.12
	c0.53,1.28,0.64,2.8,1.38,3.91c2.72,4.04,3.11,9.04,5.59,13.17c0.28,0.46,0.04,1.22,0.04,1.78c-0.61,0.13-0.92,0.19-1.59,0.33
	c-3-9.91-8.01-19.1-10.91-29.31c-2.91,1.05-2.5,3.99-3.29,5.87C19.41,162.55,18.94,164.56,17.23,166.21z"/>
<path class="st13" d="M132.05,91.89c-0.72-4.72,1.38-9.24,1-13.93c2.35-4.06,1.64-8.8,2.87-13.14c0.98-3.47,0.8-7.27,1.13-10.93
	c1.5-0.09,0.85-1.24,1-2c0.33,0,0.67,0,1,0c0,1.67,0,3.33,0,5c-0.33,0.52-0.93,1.03-0.96,1.57c-0.29,5.07-2.44,9.84-2.15,15.05
	c0.15,2.61-0.53,5.41-1.16,7.93c-0.81,3.21-1.87,6.3-1.77,9.67C133.01,91.36,132.39,91.63,132.05,91.89z"/>
<path class="st12" d="M17.44,165.89c-0.91,3.56-1.79,7.02-2.78,10.89c-0.24,0.24-0.82,0.82-1.57,1.57c0,1.28,0,2.72,0,4.5
	c-1.15,0.46-2.28,0.91-3.58,1.43c-0.22-0.81-0.37-1.24-0.45-1.69c-0.06-0.32-0.11-0.7,0.01-0.98c1.14-2.68,3.42-4.81,3.96-7.77
	c0.54-2.96,2.5-5.24,3.55-7.95C16.6,165.84,16.89,165.89,17.44,165.89z"/>
<path class="st14" d="M287.15,183.72c0-0.62,0-1.07,0-1.65c5.98,0,11.87,0,17.81,0c0,0.62,0,1.07,0,1.65
	C298.97,183.72,293.09,183.72,287.15,183.72z"/>
<path class="st15" d="M304.96,167.06c0,0.61,0,1.06,0,1.67c-5.97,0-11.86,0-17.82,0c0-0.61,0-1.06,0-1.67
	C293.11,167.06,299,167.06,304.96,167.06z"/>
<path class="st16" d="M74.05,153.39c0-0.66-0.01-0.98,0-0.98c5.54-0.26,11.09-0.51,16.72-0.75c0.16,0.8,0.25,1.25,0.34,1.68
	c-0.32,0.21-0.58,0.52-0.85,0.52c-5.14,0.03-10.29,0.03-15.43,0C74.58,153.87,74.31,153.56,74.05,153.39z"/>
<path class="st17" d="M73.05,182.85c1.01-0.32,2.02-0.89,3.03-0.91c4.46-0.1,8.92-0.04,12.85-0.04c0.98,0.58,1.62,0.97,3.09,1.84
	c-7.02,0-12.89,0-18.75,0C73.2,183.44,73.13,183.14,73.05,182.85z"/>
<path class="st18" d="M72.71,167.73c0.82-0.82,1.17-1.17,1.68-1.68c4.91,0,9.99,0,14.89,0c0.65,0.4,1.28,0.8,2.7,1.68
	C85.01,167.73,79.14,167.73,72.71,167.73z"/>
<path class="st19" d="M30.05,132.89c-0.94,0-1.9-0.1-2.82,0.05c-0.43,0.07-0.79,0.62-1.18,0.95c-4.61,0-9.22,0-13.91,0
	c0-0.78,0-1.23,0-2c6.03,0,11.97,0,17.91,0C30.05,132.23,30.05,132.56,30.05,132.89z"/>
<path class="st20" d="M174.05,96.89c4.01,0,7.87,1.61,11.96,1.07c0.95-0.13,2.02,0.6,3.04,0.93c0.25,0.33,0.47,0.7,0.76,0.99
	c0.38,0.37,0.82,0.68,1.24,1.01c-1.98-0.33-3.95-0.75-5.94-0.98c-2-0.23-3.95,0.04-6.01-0.88c-1.63-0.73-3.85-0.09-5.8-0.19
	c-0.43-0.02-0.83-0.62-1.25-0.95C172.81,97.74,173.97,98.39,174.05,96.89z"/>
<path class="st21" d="M112.05,109.89c4.23-2.19,8.42-4.42,12.76-6.4c1.15-0.52,2.15-0.45,3.24-0.6c-2.75,2.36-5.67,4.19-9.32,5.13
	c-2.4,0.62-4.46,2.53-6.68,3.87C112.05,111.23,112.05,110.56,112.05,109.89z"/>
<path class="st22" d="M287.47,152.02c5.78,0,11.57,0,17.54,0c-0.64,1.5-1.63,2.25-2.98,1.83c-3.92-1.2-7.75-1.38-11.71-0.06
	c-0.91,0.3-2.22-0.63-3.35-0.99C287.13,152.54,287.3,152.28,287.47,152.02z"/>
<path class="st23" d="M150.05,42.89c-2.8-0.38-5.78,0.84-8.55-0.79c-0.72,0.53-1.59,1.16-2.45,1.79c0-1.6,0-3.2,0-4.9
	c0.9-0.05,1.53-0.09,2.39-0.14c0.82,1.03,1.72,2.16,2.43,3.04c2.02,0,3.48-0.08,4.93,0.05C149.24,41.98,149.63,42.56,150.05,42.89z"
	/>
<path class="st3" d="M286.05,131.89c-4.75,0-9.5,0.01-14.25-0.01c-0.72,0-1.74,0.35-1.75-0.99c4.75,0,9.5-0.01,14.25,0.01
	C285.02,130.91,286.04,130.55,286.05,131.89z"/>
<path class="st13" d="M137.05,51.89c0.33-0.33,0.67-0.67,1-1c0,0.33,0,0.67,0,1C137.72,51.89,137.39,51.89,137.05,51.89z"/>
<path class="st20" d="M192.05,98.89c0.33,0.33,0.67,0.67,1,1C192.72,99.56,192.39,99.23,192.05,98.89z"/>
<path class="st24" d="M144.05,55.89c2.11-0.77,4.23-1.54,6.86-2.5c0.24,3.14,0.09,5.83,0.14,8.5c-1.93-0.34-0.64-1.84-1-2.75
	c-0.41-1.06,0.93-2.66-1-3.25c-1.36,0.74-2.71,1.47-4.26,2.31c0.32,1.4,0.64,2.6,0.87,3.82c0.49,2.61,1.06,5.22,1.35,7.86
	c0.45,3.98,0.7,7.98,1.03,11.97c0.01,0.16-0.06,0.43,0.01,0.48c2.21,1.44,0.49,3.89,1.5,5.85c0.95,1.84,0.39,4.45,0.49,6.72
	c-0.15,0.76,0.5,1.91-1,2c-0.33,0-0.67,0-1,0c-0.33-1.69-0.82-3.37-0.96-5.08c-0.17-1.98,0.57-4.27-0.18-5.92
	c-1.12-2.43-0.08-5.02-1-7.08c-1.17-2.6-0.53-5.11-0.89-7.63c-0.07-0.47-0.63-0.87-0.96-1.29c0-1.27,0.08-2.55-0.05-3.8
	c-0.04-0.43-0.62-0.8-0.95-1.2c0-0.33,0-0.67,0-1c0-0.67,0-1.33,0-2c0-1,0-2,0-3c0-0.67,0-1.33,0-2
	C143.39,56.56,143.72,56.23,144.05,55.89z"/>
<path class="st25" d="M156.05,98.89c-0.87,2.71-3.7,1.86-5.46,2.98c-0.35,0.22-0.9,0.14-1.57,0.22c0.43,1.46,0.81,2.75,1.18,4
	c-2.91,3.3-5.77,6.4-8.43,9.65c-0.94,1.15-1.41,2.7-2.16,4.2c0.81,0.81,1.3,1.75,1.94,1.87c4.04,0.71,4.99,3.7,5.5,7.08
	c-0.33,0-0.67,0-1,0c-1.88-0.9-1.39-3.37-3.1-4.56c-1.44-0.5-3.04-1.05-4.76-1.63c0-1.8,0-3.59,0-5.62
	c2.51-3.52,5.16-7.24,8.09-11.37c-0.97-0.76-2.02-1.57-3.14-2.45c0.31-2.91,0.84-3.87,2.63-3.22c1.63,0.59,2.82-0.22,4.21-0.14
	c1.46,0.08,2.82-0.1,4.11-0.95C154.55,98.63,155.39,98.89,156.05,98.89z"/>
<path class="st26" d="M143.05,63.89c0,0.33,0,0.67,0,1c-0.33,0.33-0.67,0.67-1,1c-0.33,0-0.67,0-1,0c0-1.67,0-3.33,0-5
	c-0.11-0.63-0.23-1.27-0.34-1.9c-0.22,0.02-0.44,0.05-0.66,0.07c0,0.61,0,1.22,0,1.83c-0.33,0.33-0.67,0.67-1,1
	c-0.33,4.02,0.02,8.27-1.23,11.98c-0.93,2.76-0.33,5.56-1.59,8.31c-1.2,2.63-0.8,5.97-1.21,8.98c-0.17,1.22-0.74,2.37-0.94,3.59
	c-0.21,1.28-0.15,2.59-0.3,3.88c-0.04,0.32-0.43,0.6-0.63,0.87c0.95,0.92,2.67-0.52,2.9,1.39c-1.33,0-2.67,0-4,0c0-3,0-6,0-9
	c0.33-0.26,0.96-0.53,0.96-0.78c-0.1-3.37,0.96-6.46,1.77-9.67c0.64-2.52,1.31-5.32,1.16-7.93c-0.29-5.21,1.86-9.98,2.15-15.05
	c0.03-0.54,0.63-1.05,0.96-1.57c0.61-0.11,1.23-0.18,1.82-0.34c0.73-0.19,1.45-0.44,2.18-0.66c0,0.33,0,0.67,0,1
	c-0.33,0.25-0.67,0.5-1,0.76c0.33,0.41,0.67,0.83,1,1.24c0,1,0,2,0,3c-0.33,0.25-0.67,0.5-1,0.76
	C142.39,63.06,142.72,63.48,143.05,63.89z"/>
<path class="st27" d="M149.05,55.89c1.94,0.59,0.59,2.19,1,3.25c0.36,0.91-0.94,2.42,1,2.75c0,0.5,0,0.99,0,1.49
	c1.28,0.49,2.56,0.99,4,1.54c0,3.99,0,7.77,0,11.55c0,6.48,0.3,7.54,3.89,13.82c0,1.76,0,3.54,0,4.95
	c-2.54,0.87-4.85,1.73-7.21,2.42c-0.94,0.27-2.25,1.04-2.68-0.77c1.5-0.09,0.85-1.24,1-2c0.68,0.35,1.36,0.71,2.03,1.05
	c1.41-1.52,4.39-0.35,5.09-3.62c-1.19-3.16-2.54-6.75-4.18-11.13c0.98-4.55-0.9-9.74-1.13-14.77c-1.09-0.72-2-1.32-2.81-1.85
	C149.05,61.54,149.05,58.72,149.05,55.89z"/>
<path class="st28" d="M141.05,60.89c0,1.67,0,3.33,0,5c0,1,0,2,0,3c-1.5,0.09-0.85,1.24-1,2c0,1.33,0.13,2.67-0.04,3.98
	c-0.17,1.38-0.77,2.7-0.94,4.07c-0.42,3.34-0.39,6.76-1.17,10c-0.33,1.35-0.72,2.68-0.89,4.1c-0.19,1.54-0.71,3.04-0.91,4.57
	c-0.05,0.38,0.61,0.85,0.94,1.28c0.09,1.5,1.24,0.85,2,1c0.33,0,0.67,0,1,0c0,0.33,0,0.67,0,1c-0.27,1.41-0.98,1.14-1.93,0.61
	c-0.61-0.34-1.38-0.42-2.07-0.61c-0.23-1.92-1.95-0.47-2.9-1.39c0.2-0.27,0.59-0.55,0.63-0.87c0.15-1.29,0.09-2.61,0.3-3.88
	c0.2-1.21,0.78-2.37,0.94-3.59c0.42-3.01,0.02-6.35,1.21-8.98c1.25-2.75,0.66-5.55,1.59-8.31c1.25-3.71,0.89-7.96,1.23-11.98
	c0.33-0.33,0.67-0.67,1-1C140.39,60.89,140.72,60.89,141.05,60.89z"/>
<path class="st29" d="M128.05,107.89c-5.21,3.64-10.41,7.28-15.53,10.86c-0.51-0.38-0.89-0.67-1.45-1.09
	c-4.16,3.05-6.5,7.69-10.02,11.23c-0.33-0.33-0.67-0.67-1-1c2.86-4.27,5.72-8.53,8.67-12.93c1.07,0.33,2.37,0.73,3.76,1.16
	c0.68-2.19,1.94-2.91,4.07-3.46c2.58-0.67,4.53-3.14,7.24-4.06c1.15-0.39,2.18-1.13,3.26-1.72
	C127.39,107.23,127.72,107.56,128.05,107.89z"/>
<path class="st30" d="M152.69,47.95c-2.28,1.81-4.24,3.37-6.21,4.94c-2.82-0.57-4.59-2.31-5.54-5.45c0.91-0.62,2-1.36,3.79-2.59
	C146.78,44.76,149.77,45.26,152.69,47.95z"/>
<path class="st31" d="M185.5,128.94c-0.48-0.63-1.29-1.23-1.39-1.91c-0.42-3.13-1.8-5.93-3.19-8.62c-1.29-2.5-1.95-4.93-1.89-7.68
	c0.07-2.93,0.02-5.86,0.02-9.26c0.93,0.88,1.38,1.31,2,1.9c-0.03,2.87,0.4,5.84,0.82,8.83c0.4,2.86,1.44,5.4,2.18,8.08
	c0.79,2.83,1.63,5.65,2.45,8.47C186.17,128.82,185.83,128.88,185.5,128.94z"/>
<path class="st32" d="M140.05,70.89c0.15-0.76-0.5-1.91,1-2c0.33,0,0.67,0,1,0c0.33,0.33,0.67,0.67,1,1c0,1.33,0,2.67,0,4
	c0.33,1.67,0.8,3.33,0.97,5.02c0.42,4.14,0.69,8.29,1.04,12.43c0.04,0.46,0.05,1.04,0.32,1.33c1.23,1.29,0.5,2.68,0.56,3.85
	c-1.32,1.01-3.23-0.76-3.9,1.37c-0.67,1-1.33,2-2,3c0-0.33,0-0.67,0-1c0.11-0.95-0.12-2.26,0.42-2.76c0.95-0.88,2.37-1.27,3.64-1.89
	c-0.44-3.15,0.81-6.49-1.05-9.5c0.23-4.98-2.02-9.58-2.19-14.51C140.86,71.12,140.33,71.01,140.05,70.89z"/>
<path class="st33" d="M142.05,97.89c0.67-2.13,2.58-0.36,3.9-1.37c-0.06-1.17,0.67-2.56-0.56-3.85c-0.27-0.29-0.29-0.87-0.32-1.33
	c-0.35-4.14-0.62-8.29-1.04-12.43c-0.17-1.69-0.64-3.35-0.97-5.02c0.33-0.39,0.88-0.75,0.95-1.18c0.15-0.92,0.05-1.88,0.05-2.82
	c0.33,0.43,0.89,0.83,0.96,1.29c0.37,2.52-0.27,5.03,0.89,7.63c0.92,2.05-0.12,4.65,1,7.08c0.76,1.65,0.02,3.94,0.18,5.92
	c0.14,1.71,0.63,3.39,0.96,5.08C146.24,98.37,144.09,97.81,142.05,97.89z"/>
<path class="st34" d="M164.05,119.89c-2.12,3.89-5.39,7.17-6.28,11.98c-0.54-0.05-1.11-0.1-2.04-0.19c1.53-3.51,2.79-6.76,4.38-9.85
	c0.6-1.17,1.94-1.97,2.94-2.94C163.39,119.23,163.72,119.56,164.05,119.89z"/>
<path class="st31" d="M195.05,122.89c-0.33,1.36-0.56,2.76-1.04,4.07c-0.26,0.71-0.81,1.48-1.45,1.86c-1.86,1.1-3.82,2.02-6.14,3.21
	c-0.13-1.1-0.25-2.12-0.37-3.14c0.42,0.2,0.84,0.4,1.5,0.71c1.14-0.76,2.5-1.67,3.92-2.61c1.28-1.83,0.66-4.5,2.58-6.09
	C194.2,121.65,193.56,122.81,195.05,122.89z"/>
<path class="st35" d="M164.05,119.89c-0.33-0.33-0.67-0.67-1-1c1.73-2.48,3.7-4.71,6.57-6.25
	C169.64,115.25,169.52,115.39,164.05,119.89z"/>
<path class="st36" d="M132.05,91.89c0,3,0,6,0,9c-0.33,0.33-0.67,0.67-1,1c-1,0.33-2,0.67-3,1c2.05-2.73,3.26-5.72,3.02-9.22
	C131.03,92.96,130.68,91.9,132.05,91.89z"/>
<path class="st3" d="M100.05,127.89c0.33,0.33,0.67,0.67,1,1c-1.14,0.72-0.36,2.95-2.57,3.09
	C97.59,130.03,97.96,128.67,100.05,127.89z"/>
<path class="st37" d="M128.05,107.89c-0.33-0.33-0.67-0.67-1-1c1.06-0.76,2.11-1.52,3.29-2.36c0.38,0.68,0.6,1.06,0.97,1.72
	C130.15,106.84,129.1,107.36,128.05,107.89z"/>
<path class="st38" d="M195.54,114.9c0.36,0.82,0.72,1.64,1.17,2.66c-0.06,0.01-0.9,0.24-1.5,0.4c-0.03-0.4-0.11-1.62-0.19-2.85
	C195.19,115.04,195.37,114.97,195.54,114.9z"/>
<path class="st39" d="M146.05,128.89c0.33,0,0.67,0,1,0c0.65,0.43,1.3,0.87,2.05,1.37c-0.49,0.53-0.9,0.98-1.54,1.67
	C147.03,130.85,146.54,129.87,146.05,128.89z"/>
<path class="st40" d="M165.2,92.49c-0.45,0.55-0.9,1.1-1.74,2.14c-0.23-1.25-0.34-1.8-0.47-2.5c0.66-0.13,1.1-0.21,1.55-0.3
	C164.76,92.05,164.98,92.27,165.2,92.49z"/>
<path class="st41" d="M195.05,122.89c-1.5-0.09-0.85-1.24-1-2c0.11-0.28,0.23-0.56,0.64-1.6
	C194.86,120.95,194.96,121.92,195.05,122.89z"/>
<path class="st25" d="M156.03,98.12c0.64-0.05,1.27-0.11,1.91-0.16c0.03,0.22,0.06,0.43,0.09,0.65c-0.65,0.13-1.3,0.25-1.95,0.38
	C156.05,98.69,156.04,98.4,156.03,98.12z"/>
<path class="st13" d="M143.05,56.89c0-0.33,0-0.67,0-1c0.33,0,0.67,0,1,0C143.72,56.23,143.39,56.56,143.05,56.89z"/>
<path class="st26" d="M131.05,101.89c0.33-0.33,0.67-0.67,1-1C131.72,101.23,131.39,101.56,131.05,101.89z"/>
<path class="st13" d="M137.05,53.89c-0.33-0.41-0.67-0.83-1-1.24c0.33-0.25,0.67-0.5,1-0.76C137.05,52.56,137.05,53.23,137.05,53.89
	z"/>
<path class="st42" d="M137.05,53.89c0-0.67,0-1.33,0-2c0.33,0,0.67,0,1,0C137.9,52.65,138.55,53.81,137.05,53.89z"/>
<path class="st43" d="M149.05,55.89c0,2.82,0,5.65,0,8.68c0.81,0.54,1.72,1.13,2.81,1.85c0.23,5.03,2.11,10.22,1.13,14.77
	c1.64,4.38,2.99,7.97,4.18,11.13c-0.7,3.27-3.68,2.1-5.09,3.62c-0.66-0.35-1.35-0.7-2.03-1.05c-0.1-2.27,0.46-4.88-0.49-6.72
	c-1.01-1.96,0.7-4.4-1.5-5.85c-0.08-0.05,0-0.32-0.01-0.48c-0.33-3.99-0.58-7.99-1.03-11.97c-0.3-2.64-0.87-5.24-1.35-7.86
	c-0.23-1.22-0.55-2.42-0.87-3.82C146.34,57.36,147.69,56.63,149.05,55.89z"/>
<path class="st33" d="M143.05,69.89c-0.33-0.33-0.67-0.67-1-1c0-1,0-2,0-3c0.33-0.33,0.67-0.67,1-1c0.33,0.4,0.91,0.77,0.95,1.2
	c0.13,1.25,0.05,2.53,0.05,3.8C143.72,69.89,143.39,69.89,143.05,69.89z"/>
<path class="st13" d="M143.05,58.89c-0.33-0.41-0.67-0.83-1-1.24c0.33-0.25,0.67-0.5,1-0.76C143.05,57.56,143.05,58.23,143.05,58.89
	z"/>
<path class="st0" d="M143.05,63.89c-0.33-0.41-0.67-0.83-1-1.24c0.33-0.25,0.67-0.5,1-0.76C143.05,62.56,143.05,63.23,143.05,63.89z
	"/>
<ellipse class="st13" cx="141.55" cy="67.39" rx="0.71" ry="2.12"/>
<path class="st13" d="M141.05,60.89c-0.33,0-0.67,0-1,0c0-0.61,0-1.22,0-1.83c0.22-0.02,0.44-0.05,0.66-0.07
	C140.83,59.63,140.94,60.26,141.05,60.89z"/>
<path class="st13" d="M140.05,60.89c-0.33,0.33-0.67,0.67-1,1C139.39,61.56,139.72,61.23,140.05,60.89z"/>
<path class="st44" d="M140.05,70.89c0.28,0.12,0.81,0.22,0.81,0.35c0.16,4.92,2.42,9.53,2.19,14.51c1.86,3.01,0.61,6.35,1.05,9.5
	c-1.27,0.62-2.69,1-3.64,1.89c-0.53,0.49-0.3,1.81-0.42,2.76c-0.33,0-0.67,0-1,0c-0.09-1.5-1.24-0.85-2-1
	c-0.33-0.43-0.99-0.9-0.94-1.28c0.2-1.54,0.72-3.04,0.91-4.57c0.17-1.41,0.56-2.74,0.89-4.1c0.78-3.24,0.76-6.66,1.17-10
	c0.17-1.38,0.76-2.7,0.94-4.07C140.18,73.56,140.05,72.22,140.05,70.89z"/>
<path class="st32" d="M137.05,98.89c0.76,0.15,1.91-0.5,2,1C138.29,99.74,137.14,100.39,137.05,98.89z"/>
<path class="st45" d="M143.05,69.89c0.33,0,0.67,0,1,0c0,0.94,0.1,1.9-0.05,2.82c-0.07,0.43-0.62,0.79-0.95,1.18
	C143.05,72.56,143.05,71.23,143.05,69.89z"/>
<path class="st42" d="M-263,198.5"/>
<path class="st42" d="M-212,167.5"/>
</svg>
